<svg xmlns="http://www.w3.org/2000/svg" viewBox="0 0 64 64"><defs><style>.a{fill:#efefef;}.b{fill:#00a0e9;}.c{fill:#e60012;}.d{fill:#231815;stroke:#231815;stroke-miterlimit:10;}</style></defs><path class="a" d="M46.0858,36.28151c-.06463-1.38686-.11934-2.78095-.188-4.16292-.13773-2.76717-.29986-5.54764-.455-8.32514a91.74068,91.74068,0,0,1,12.375,1.56459,2.26391,2.26391,0,0,0,2.66335-1.71565v0a2.25323,2.25323,0,0,0-1.74266-2.70522A96.25534,96.25534,0,0,0,45.195,19.25943q-.341-5.76333-.72618-11.49033a2.257,2.257,0,0,0-2.41211-2.09632h0a2.24918,2.24918,0,0,0-2.09308,2.397q.37175,5.49878.70163,11.05021c-2.54489-.01406-5.09164.06428-7.63557.2539a95.50661,95.50661,0,0,0-9.56813,1.20682q-.56787-5.52825-.73516-11.0999A2.25335,2.25335,0,0,0,20.448,7.27992h0a2.26313,2.26313,0,0,0-2.236,2.31526q.173,5.9642.80693,11.891-4.14413.93924-8.202,2.23411a2.2535,2.2535,0,0,0-1.41814,2.89h0a2.26388,2.26388,0,0,0,2.84334,1.39527q3.61945-1.15986,7.32106-2.01367.80511,5.94228,2.063,11.79132-5.163.55859-10.28677,1.31178a2.26375,2.26375,0,0,0-1.89713,2.59191h0a2.24909,2.24909,0,0,0,2.55786,1.87567c3.53209-.52,7.09119-.96523,10.65709-1.34352,1.08624,4.38256,2.37049,8.75512,3.84285,13.0374a2.25868,2.25868,0,0,0,2.90444,1.3758h0a2.25623,2.25623,0,0,0,1.35868-2.865C29.40985,49.826,28.22238,45.8059,27.2035,41.77347c2.18826-.19368,4.376-.36539,6.55878-.50305,2.66023-.16778,5.33417-.281,8.012-.367.20044,4.61936.38636,9.24194.54158,13.83524a2.252,2.252,0,0,0,2.32427,2.17651h0a2.2581,2.2581,0,0,0,2.18873-2.33057c-.15467-4.57909-.3399-9.187-.53945-13.792,3.97822-.05925,7.95941-.0346,11.92194.08511a2.25328,2.25328,0,0,0,2.32723-2.16182h0a2.26049,2.26049,0,0,0-2.18249-2.35129C54.278,36.242,50.18038,36.21852,46.0858,36.28151Zm-12.608.48217c-2.437.15372-4.87984.35333-7.323.57568q-1.3347-6.07167-2.16022-12.26344A90.99136,90.99136,0,0,1,33.366,23.87737c2.51389-.18817,5.03094-.25962,7.54621-.23833.16309,2.904.33169,5.81084.47563,8.70389.06683,1.34421.11982,2.70027.18279,4.04916C38.86591,36.47946,36.16516,36.59432,33.47785,36.76368Z"/><path class="b" d="M23.30449.37639A2.25133,2.25133,0,0,0,21.55918.05555L1.79335,4.35349A2.18088,2.18088,0,0,0,.35321,5.37507,2.27421,2.27421,0,0,0,.058,7.10679a2.20485,2.20485,0,0,0,.99179,1.44014,2.2148,2.2148,0,0,0,1.72179.30517l7.5346-1.63819L15.12873,29.395A2.32793,2.32793,0,0,0,16.178,30.90512l.001.00052a2.32915,2.32915,0,0,0,1.27553.38616,2.50393,2.50393,0,0,0,.533-.059,2.4,2.4,0,0,0,1.52531-1.04613,2.29716,2.29716,0,0,0,.35272-1.82212L15.042,6.184l7.49488-1.6293a2.28221,2.28221,0,0,0,1.45424-.98761,2.17379,2.17379,0,0,0,.33078-1.73433A2.24273,2.24273,0,0,0,23.30449.37639Z"/><path class="b" d="M63.73912,17.45321a2.17673,2.17673,0,0,0-.93326-1.33093,1.97994,1.97994,0,0,0-1.60527-.36944,2.57274,2.57274,0,0,0-1.0477.53927,14.55419,14.55419,0,0,1-2.0071,1.43805,7.55,7.55,0,0,1-2.05466.71432,6.93236,6.93236,0,0,1-5.319-.70283,6.51388,6.51388,0,0,1-2.85206-4.41447,6.511,6.511,0,0,1,.76239-5.19881,6.92993,6.92993,0,0,1,4.54616-2.84788,7.616,7.616,0,0,1,2.16491-.20379,14.69646,14.69646,0,0,1,2.43036.47813,2.567,2.567,0,0,0,1.17.05225,1.9818,1.9818,0,0,0,1.30637-1.00015,2.16471,2.16471,0,0,0,.29785-1.6,2.28176,2.28176,0,0,0-1.45425-1.64915A15.7022,15.7022,0,0,0,55.70236.5781a12.81356,12.81356,0,0,0-9.06148,2.83951,10.71317,10.71317,0,0,0-3.1985,4.69665,11.47715,11.47715,0,0,0-.25971,6.24286,11.54088,11.54088,0,0,0,2.76741,5.49614A10.49708,10.49708,0,0,0,50.94092,22.883l.00313.001a12.104,12.104,0,0,0,3.14991.418,12.50389,12.50389,0,0,0,2.65767-.28949A12.07246,12.07246,0,0,0,60.294,21.69524a15.72853,15.72853,0,0,0,2.83168-2.16334A2.26119,2.26119,0,0,0,63.73912,17.45321Z"/><path class="b" d="M37.23649,15.43513a2.33148,2.33148,0,1,0-4.57032.92485l1.64739,8.14127a2.33151,2.33151,0,0,0,4.57039-.92484Z"/><path class="b" d="M38.276,8.77842,35.46172,6.8866l1.89143-2.81371a1.918,1.918,0,1,0-3.18336-2.14035L32.27831,4.74665l-2.81352-1.8913a1.918,1.918,0,1,0-2.14035,3.18336l2.814,1.89155-1.89175,2.8145a1.9177,1.9177,0,1,0,3.18335,2.1393l1.89169-2.814,2.81437,1.89175v.00052A1.91806,1.91806,0,1,0,38.276,8.77842Z"/><path class="c" d="M10.69035,63.25761a1.67575,1.67575,0,0,1-.52745-1.22134L9.86446,40.41749l-7.67207.106a1.565,1.565,0,0,1-1.15946-.45658,1.5664,1.5664,0,0,1-.48874-1.14683,1.63243,1.63243,0,0,1,.45657-1.17769A1.54054,1.54054,0,0,1,2.147,37.235l18.8224-.2596a1.67872,1.67872,0,0,1,1.68562,1.6397,1.54061,1.54061,0,0,1-.47568,1.16009,1.63143,1.63143,0,0,1-1.16458.48867L13.38,40.36875,13.6785,61.988a1.644,1.644,0,0,1-.51269,1.23557,1.74005,1.74005,0,0,1-1.24053.5276A1.67408,1.67408,0,0,1,10.69035,63.25761Z"/><path class="c" d="M11.89888,64a1.91814,1.91814,0,0,1-1.382-.56408h0a1.92224,1.92224,0,0,1-.603-1.39611l-.29517-21.37-7.423.10261a1.82418,1.82418,0,0,1-1.33678-.52762,1.81265,1.81265,0,0,1-.5636-1.32122A1.88079,1.88079,0,0,1,.819,37.57219a1.78764,1.78764,0,0,1,1.32462-.586l18.8224-.25967a1.93268,1.93268,0,0,1,1.35429.54511,1.84667,1.84667,0,0,1,.58353,1.34019,1.78634,1.78634,0,0,1-.54949,1.34018,1.87985,1.87985,0,0,1-1.3363.56068l-7.3856.10164.29517,21.37a1.8913,1.8913,0,0,1-.58694,1.416A1.98968,1.98968,0,0,1,11.92855,64Zm-1.789-23.835.302,21.868a1.42126,1.42126,0,0,0,.45224,1.046l.00049.00048a1.38578,1.38578,0,0,0,1.05717.42258,1.48869,1.48869,0,0,0,1.06884-.45564,1.39183,1.39183,0,0,0,.43911-1.05523l-.302-21.868,7.88356-.10844a1.378,1.378,0,0,0,.993-.41674,1.2893,1.2893,0,0,0,.40166-.97936,1.42932,1.42932,0,0,0-1.40826-1.39417h-.02431l-18.82289.25968a1.28926,1.28926,0,0,0-.9677.42841,1.37885,1.37885,0,0,0-.38951,1.00417,1.31437,1.31437,0,0,0,.41285.9711,1.303,1.303,0,0,0,.98277.38659Z"/><path class="c" d="M27.40709,62.47882a8.814,8.814,0,0,1-3.451-3.5433A11.935,11.935,0,0,1,23.81152,48.466a8.53858,8.53858,0,0,1,3.37228-3.60014,10.16751,10.16751,0,0,1,5.06531-1.31726,10.06471,10.06471,0,0,1,5.08222,1.17724,8.79415,8.79415,0,0,1,3.48935,3.52428,11.03072,11.03072,0,0,1,1.28,5.21817,10.91155,10.91155,0,0,1-1.13613,5.23221,8.72434,8.72434,0,0,1-3.409,3.63812,10.09285,10.09285,0,0,1-5.02885,1.31725A10.14064,10.14064,0,0,1,27.40709,62.47882Zm8.05113-2.79535a5.5549,5.5549,0,0,0,2.31169-2.35589,7.81582,7.81582,0,0,0,.816-3.84858,7.27121,7.27121,0,0,0-.96058-3.84284A5.68131,5.68131,0,0,0,35.385,47.47468a6.31371,6.31371,0,0,0-3.09153-.71377,6.89209,6.89209,0,0,0-2.97613.72178,5.591,5.591,0,0,0-2.3121,2.33822,7.71572,7.71572,0,0,0-.8162,3.82891A7.35919,7.35919,0,0,0,27.15021,57.53a5.61573,5.61573,0,0,0,2.24163,2.19969,6.29514,6.29514,0,0,0,3.09049.71346A6.59609,6.59609,0,0,0,35.45822,59.68347Z"/><path class="c" d="M32.34157,63.90615a10.34323,10.34323,0,0,1-5.05439-1.20938l-.00292-.00146a9.09966,9.09966,0,0,1-3.54691-3.64125,12.18264,12.18264,0,0,1-.14783-10.70057A8.81654,8.81654,0,0,1,27.05814,44.651a10.46,10.46,0,0,1,5.18763-1.35137,10.30392,10.30392,0,0,1,5.20562,1.2084,9.08052,9.08052,0,0,1,3.58776,3.62229,11.33685,11.33685,0,0,1,1.31052,5.33449,11.20259,11.20259,0,0,1-1.16366,5.35,9.01011,9.01011,0,0,1-3.5051,3.739,10.383,10.383,0,0,1-5.15067,1.35088C32.467,63.90566,32.4043,63.90615,32.34157,63.90615Zm-4.81271-1.6446a9.87834,9.87834,0,0,0,4.99457,1.14519A9.88839,9.88839,0,0,0,37.43,62.12394a8.52528,8.52528,0,0,0,3.31351-3.5372,10.71037,10.71037,0,0,0,1.10823-5.11517,10.84882,10.84882,0,0,0-1.24926-5.10252,8.58824,8.58824,0,0,0-3.39276-3.42584,9.81638,9.81638,0,0,0-4.95713-1.14567,9.97215,9.97215,0,0,0-4.94352,1.28329,8.32541,8.32541,0,0,0-3.27508,3.4978,11.68625,11.68625,0,0,0,.141,10.23812A8.61223,8.61223,0,0,0,27.52886,62.26155Zm4.85064-1.56873a6.54193,6.54193,0,0,1-3.10441-.74352,5.88241,5.88241,0,0,1-2.34-2.29378,7.63094,7.63094,0,0,1-.99493-4.00208,7.988,7.988,0,0,1,.84612-3.951,5.86069,5.86069,0,0,1,2.41438-2.43966A7.17888,7.17888,0,0,1,32.29,46.512a6.65885,6.65885,0,0,1,3.21139.74255,5.9543,5.9543,0,0,1,2.338,2.25439,7.5442,7.5442,0,0,1,.99541,3.96657,8.0942,8.0942,0,0,1-.84564,3.97,5.82645,5.82645,0,0,1-2.41437,2.45814l-.00244.001a6.87366,6.87366,0,0,1-3.0869.78777C32.45,60.69282,32.415,60.69282,32.3795,60.69282Zm.01556-13.68341c-.03258,0-.06516,0-.09823.00049a6.67166,6.67166,0,0,0-2.86953.69635,5.364,5.364,0,0,0-2.20333,2.234,7.49853,7.49853,0,0,0-.78583,3.70642,7.15443,7.15443,0,0,0,.922,3.75019A5.409,5.409,0,0,0,29.5085,59.5097a5.98315,5.98315,0,0,0,2.9702.68468,6.38,6.38,0,0,0,2.86418-.73185,5.334,5.334,0,0,0,2.20771-2.25244,7.60418,7.60418,0,0,0,.78631-3.72782,7.06811,7.06811,0,0,0-.9215-3.71274,5.4721,5.4721,0,0,0-2.14692-2.075A6.08172,6.08172,0,0,0,32.39506,47.00941Z"/><path class="c" d="M48.34547,60.79076q-2.62578-2.60853-2.69089-7.37149a12.84807,12.84807,0,0,1,.914-4.96508,8.23152,8.23152,0,0,1,3.04735-3.78384,8.90535,8.90535,0,0,1,4.97016-1.4299,9.08956,9.08956,0,0,1,4.89419,1.21763,8.7742,8.7742,0,0,1,3.10862,3.41566,10.56631,10.56631,0,0,1,1.162,4.8038,1.71182,1.71182,0,0,1-1.7517,1.76343l-12.77538.17612a6.12735,6.12735,0,0,0,2.07885,4.07308,6.84207,6.84207,0,0,0,4.57448,1.35429,11.67594,11.67594,0,0,0,2.69738-.32082,11.09573,11.09573,0,0,0,2.3876-.92081,1.36666,1.36666,0,0,1,.67932-.16107,1.55822,1.55822,0,0,1,1.0835.41965,1.41177,1.41177,0,0,1,.48674,1.0708A1.65484,1.65484,0,0,1,62.21119,61.583a14.23394,14.23394,0,0,1-3.00566,1.30742,13.72307,13.72307,0,0,1-3.58584.44688A9.66221,9.66221,0,0,1,48.34547,60.79076Zm11.8683-9.68969a5.00069,5.00069,0,0,0-.94121-2.51927,5.36128,5.36128,0,0,0-2.08577-1.78606,5.71024,5.71024,0,0,0-2.5597-.56959,6.42733,6.42733,0,0,0-2.52459.60214,4.95658,4.95658,0,0,0-2.07132,1.937,6.42116,6.42116,0,0,0-.84682,2.97913l10.583-.1462A.39942.39942,0,0,0,60.21377,51.10107Z"/><path class="c" d="M55.4014,63.58764A9.8405,9.8405,0,0,1,48.17,60.96708a10.42345,10.42345,0,0,1-2.7645-7.54462,13.15864,13.15864,0,0,1,.93171-5.06022,8.51354,8.51354,0,0,1,3.13991-3.8985,9.19289,9.19289,0,0,1,5.10544-1.47245,9.43209,9.43209,0,0,1,5.02569,1.25314,9.06581,9.06581,0,0,1,3.20166,3.51385,10.86934,10.86934,0,0,1,1.18993,4.9158,1.95978,1.95978,0,0,1-1.99715,2.01562L49.514,54.86233a5.7919,5.7919,0,0,0,1.94609,3.63542,6.67963,6.67963,0,0,0,4.41347,1.29788,11.49183,11.49183,0,0,0,2.63952-.31316,10.90106,10.90106,0,0,0,2.33463-.90108,1.60873,1.60873,0,0,1,.78972-.18867,1.81861,1.81861,0,0,1,1.25265.48239,1.6578,1.6578,0,0,1,.57041,1.25362,1.89132,1.89132,0,0,1-1.12525,1.67037,14.57681,14.57681,0,0,1-3.06016,1.33046,14.05052,14.05052,0,0,1-3.65195.45662Q55.51155,63.58764,55.4014,63.58764Zm-.6521-20.09938c-.05349,0-.10649,0-.16.001a8.70584,8.70584,0,0,0-4.8341,1.38735A8.0273,8.0273,0,0,0,46.79864,48.549a12.66011,12.66011,0,0,0-.89524,4.86668A9.94966,9.94966,0,0,0,48.521,60.614h0a9.46126,9.46126,0,0,0,7.0953,2.47419,13.5352,13.5352,0,0,0,3.51969-.43717,14.03647,14.03647,0,0,0,2.95268-1.28475,1.41479,1.41479,0,0,0,.87385-1.23077,1.16065,1.16065,0,0,0-.40459-.8894,1.38921,1.38921,0,0,0-.91323-.35547,1.13924,1.13924,0,0,0-.5563.12643,11.42168,11.42168,0,0,1-2.45328.94824,12.02057,12.02057,0,0,1-2.75477.32824,7.16507,7.16507,0,0,1-4.73587-1.41069,6.39809,6.39809,0,0,1-2.16735-4.23112l-.03939-.27961,13.05805-.18041a1.462,1.462,0,0,0,1.506-1.51087,10.37851,10.37851,0,0,0-1.13352-4.69259A8.57572,8.57572,0,0,0,59.34707,44.668,8.82709,8.82709,0,0,0,54.7493,43.48826Zm-5.82756,8.50843.0141-.26551a6.70556,6.70556,0,0,1,.88065-3.09273,5.22448,5.22448,0,0,1,2.17415-2.03216,6.71358,6.71358,0,0,1,2.6332-.62925,5.80455,5.80455,0,0,1,2.67016.59423,5.63057,5.63057,0,0,1,2.18194,1.86683,5.25431,5.25431,0,0,1,.9852,2.63466l.00048.00632a.64278.64278,0,0,1-.691.76832Zm5.78331-5.52219c-.0248,0-.0496,0-.0744.00049a6.20625,6.20625,0,0,0-2.427.5811,4.72921,4.72921,0,0,0-1.95873,1.83668,6.09525,6.09525,0,0,0-.79312,2.59867l10.312-.142a.26241.26241,0,0,0,.17506-.04474.27023.27023,0,0,0,.02723-.179,4.77383,4.77383,0,0,0-.89134-2.393A5.153,5.153,0,0,0,57.08,47.0206,5.50189,5.50189,0,0,0,54.70505,46.4745Z"/><path class="d" d="M29.59425,25.18559,19.29892,23.918a.84717.84717,0,0,0-.66342.19136.8983.8983,0,0,0-.33742.6089.88879.88879,0,0,0,.7794.99827l4.19681.51671L21.81836,38.05853a.95983.95983,0,0,0,.834,1.06814.9586.9586,0,0,0,.71644-.195.90718.90718,0,0,0,.37218-.63639L25.19686,26.47l4.176.51414a.89941.89941,0,0,0,.67289-.17922.849.849,0,0,0,.34624-.59761.9247.9247,0,0,0-.79769-1.02169Z"/><path class="d" d="M41.62772,39.95177,40.403,38.47891a9.80962,9.80962,0,0,0,1.20112-1.57315,1.13885,1.13885,0,0,0,.1541-.40079.83045.83045,0,0,0-.18221-.6517.88279.88279,0,0,0-.59976-.32571.91429.91429,0,0,0-.514.08345.84234.84234,0,0,0-.37914.35191,12.786,12.786,0,0,1-.8118,1.13854l-3.80113-4.58131q-.82346-.98289-1.14322-1.45261a3.42156,3.42156,0,0,1-.45531-.90618,2.45556,2.45556,0,0,1-.07695-1.07969,1.76513,1.76513,0,0,1,.75348-1.26069,2.27762,2.27762,0,0,1,1.66967-.35071,4.17807,4.17807,0,0,1,1.87688.77678,1.09827,1.09827,0,0,0,.35945.149.74647.74647,0,0,0,.83588-.65228.71552.71552,0,0,0-.0678-.38614.75578.75578,0,0,0-.22541-.30079,5.12556,5.12556,0,0,0-2.65806-1.25074,4.23434,4.23434,0,0,0-2.10643.23379,3.41559,3.41559,0,0,0-1.52874,1.16561,3.68287,3.68287,0,0,0-.69933,1.76087,3.788,3.788,0,0,0,.11118,1.56644,6.27809,6.27809,0,0,0,.78072,1.58648,5.72469,5.72469,0,0,0-1.868,1.44869,4.1254,4.1254,0,0,0-.95675,2.23289,4.23672,4.23672,0,0,0,.28673,2.18631A3.96461,3.96461,0,0,0,31.833,39.73247a6.07764,6.07764,0,0,0,2.7973.97368,6.16415,6.16415,0,0,0,2.29509-.14741,7.139,7.139,0,0,0,2.1412-.9431l1.20163,1.49119a.99673.99673,0,0,0,.6311.32918.89545.89545,0,0,0,.94875-1.1421A1.11286,1.11286,0,0,0,41.62772,39.95177ZM34.666,39.05266a3.64937,3.64937,0,0,1-1.53976-.5356,2.78053,2.78053,0,0,1-1.0015-1.068,2.28738,2.28738,0,0,1-.24181-1.36243,3.0316,3.0316,0,0,1,.66763-1.58627A3.925,3.925,0,0,1,33.909,33.44011l4.03917,4.86249A4.90805,4.90805,0,0,1,34.666,39.05266Z"/><path class="d" d="M53.05812,40.35165a1.037,1.037,0,0,0-.47012.068,7.66591,7.66591,0,0,1-1.2628.36942,4.13324,4.13324,0,0,1-1.19608-.00053,3.801,3.801,0,0,1-2.63658-1.34226,4.099,4.099,0,0,1,.66435-5.39595,3.80246,3.80246,0,0,1,2.88342-.66264,4.147,4.147,0,0,1,1.16049.28961,7.66686,7.66686,0,0,1,1.13548.66469,1.03691,1.03691,0,0,0,.43957.18005.7516.7516,0,0,0,.59153-.2002.84635.84635,0,0,0,.31937-.54835.88331.88331,0,0,0-.32186-.79521A7.7614,7.7614,0,0,0,52.884,32.051a6.30467,6.30467,0,0,0-4.65078-.15284,5.19985,5.19985,0,0,0-2.22775,1.646,6.05227,6.05227,0,0,0-.73864,5.82737A5.0913,5.0913,0,0,0,47.07413,41.567a5.95725,5.95725,0,0,0,2.66816.99975,5.87651,5.87651,0,0,0,1.85117-.03415,7.72145,7.72145,0,0,0,1.66164-.54041.88237.88237,0,0,0,.50513-.69338.84691.84691,0,0,0-.17682-.60944A.75282.75282,0,0,0,53.05812,40.35165Z"/></svg>